<?xml version="1.0" encoding="UTF-8" standalone="no"?>
<!-- Created with Inkscape (http://www.inkscape.org/) -->

<svg
   xmlns:dc="http://purl.org/dc/elements/1.1/"
   xmlns:cc="http://creativecommons.org/ns#"
   xmlns:rdf="http://www.w3.org/1999/02/22-rdf-syntax-ns#"
   xmlns:svg="http://www.w3.org/2000/svg"
   xmlns="http://www.w3.org/2000/svg"
   xmlns:sodipodi="http://sodipodi.sourceforge.net/DTD/sodipodi-0.dtd"
   xmlns:inkscape="http://www.inkscape.org/namespaces/inkscape"
   width="744.09448819"
   height="1052.3622047"
   id="svg2"
   inkscape:label="Pozadí"
   version="1.1"
   inkscape:version="0.91 r13725"
   sodipodi:docname="small_icons.svg">
  <defs
     id="defs3">
    <inkscape:perspective
       sodipodi:type="inkscape:persp3d"
       inkscape:vp_x="0 : 526.18109 : 1"
       inkscape:vp_y="0 : 1000 : 0"
       inkscape:vp_z="744.09448 : 526.18109 : 1"
       inkscape:persp3d-origin="372.04724 : 350.78739 : 1"
       id="perspective9" />
    <inkscape:perspective
       id="perspective2837"
       inkscape:persp3d-origin="0.5 : 0.33333333 : 1"
       inkscape:vp_z="1 : 0.5 : 1"
       inkscape:vp_y="0 : 1000 : 0"
       inkscape:vp_x="0 : 0.5 : 1"
       sodipodi:type="inkscape:persp3d" />
    <inkscape:perspective
       id="perspective2837-7"
       inkscape:persp3d-origin="0.5 : 0.33333333 : 1"
       inkscape:vp_z="1 : 0.5 : 1"
       inkscape:vp_y="0 : 1000 : 0"
       inkscape:vp_x="0 : 0.5 : 1"
       sodipodi:type="inkscape:persp3d" />
    <inkscape:perspective
       id="perspective3640"
       inkscape:persp3d-origin="0.5 : 0.33333333 : 1"
       inkscape:vp_z="1 : 0.5 : 1"
       inkscape:vp_y="0 : 1000 : 0"
       inkscape:vp_x="0 : 0.5 : 1"
       sodipodi:type="inkscape:persp3d" />
    <inkscape:perspective
       id="perspective3640-9"
       inkscape:persp3d-origin="0.5 : 0.33333333 : 1"
       inkscape:vp_z="1 : 0.5 : 1"
       inkscape:vp_y="0 : 1000 : 0"
       inkscape:vp_x="0 : 0.5 : 1"
       sodipodi:type="inkscape:persp3d" />
    <inkscape:perspective
       id="perspective3640-8"
       inkscape:persp3d-origin="0.5 : 0.33333333 : 1"
       inkscape:vp_z="1 : 0.5 : 1"
       inkscape:vp_y="0 : 1000 : 0"
       inkscape:vp_x="0 : 0.5 : 1"
       sodipodi:type="inkscape:persp3d" />
  </defs>
  <sodipodi:namedview
     id="base"
     pagecolor="#ffffff"
     bordercolor="#666666"
     borderopacity="1.0"
     inkscape:pageopacity="0.0"
     inkscape:pageshadow="2"
     inkscape:zoom="1.4333804"
     inkscape:cx="415.75445"
     inkscape:cy="658.70075"
     inkscape:document-units="px"
     inkscape:current-layer="layer1"
     showgrid="false"
     inkscape:window-width="1280"
     inkscape:window-height="744"
     inkscape:window-x="-4"
     inkscape:window-y="-4"
     inkscape:window-maximized="1" />
  <metadata
     id="metadata6">
    <rdf:RDF>
      <cc:Work
         rdf:about="">
        <dc:format>image/svg+xml</dc:format>
        <dc:type
           rdf:resource="http://purl.org/dc/dcmitype/StillImage" />
        <dc:title />
      </cc:Work>
    </rdf:RDF>
  </metadata>
  <g
     inkscape:label="Vrstva 1"
     inkscape:groupmode="layer"
     id="layer1">
    <rect
       style="fill:#ffffff;fill-opacity:1;fill-rule:nonzero;stroke:none;opacity:1"
       id="rect2815"
       width="226.2128"
       height="226.2128"
       x="53.8895"
       y="55.932713"
       inkscape:export-filename="ready.png"
       inkscape:export-xdpi="6.3656878"
       inkscape:export-ydpi="6.3656878" />
    <rect
       y="55.308929"
       x="342.27908"
       height="226.2128"
       width="226.2128"
       id="rect3696"
       style="fill:#ffffff;fill-opacity:1;fill-rule:nonzero;stroke:none;opacity:1"
       inkscape:export-filename="error.png"
       inkscape:export-xdpi="6.3656874"
       inkscape:export-ydpi="6.3656874" />
    <g
       id="g3686"
       transform="translate(34.93368,0)">
      <rect
         transform="matrix(0.70710678,-0.70710678,0.70710678,0.70710678,0,0)"
         ry="19.588718"
         y="395.80603"
         x="30.996191"
         height="41.171837"
         width="294.44101"
         id="rect2827"
         style="fill:#ff0000;fill-opacity:1;fill-rule:nonzero;stroke:none" />
      <rect
         transform="matrix(-0.70710678,-0.70710678,-0.70710678,0.70710678,0,0)"
         ry="19.588718"
         y="-198.80261"
         x="-563.61243"
         height="41.171837"
         width="294.44101"
         id="rect2827-4"
         style="fill:#ff0000;fill-opacity:1;fill-rule:nonzero;stroke:none" />
    </g>
    <g
       id="g3690"
       style="fill:#0000ff"
       transform="translate(0,-2.4952628)">
      <rect
         ry="19.588718"
         y="150.94846"
         x="57.391068"
         height="41.171837"
         width="203.36391"
         id="rect2827-1-4"
         style="fill:#0000ff;fill-opacity:1;fill-rule:nonzero;stroke:none" />
      <g
         transform="translate(0,1.2475575)"
         id="g3682"
         style="fill:#0000ff">
        <rect
           style="fill:#0000ff;fill-opacity:1;fill-rule:nonzero;stroke:none"
           id="rect2827-1"
           width="165.93497"
           height="41.171837"
           x="154.33612"
           y="-82.351021"
           ry="19.588718"
           transform="matrix(0.70710678,0.70710678,-0.70710678,0.70710678,0,0)" />
        <rect
           transform="matrix(0.70710678,-0.70710678,-0.70710678,-0.70710678,0,0)"
           ry="19.588718"
           y="-323.17294"
           x="-86.485809"
           height="41.171837"
           width="165.93497"
           id="rect3680"
           style="fill:#0000ff;fill-opacity:1;fill-rule:nonzero;stroke:none" />
      </g>
    </g>
    <rect
       style="opacity:1;fill:#ffffff;fill-opacity:1;fill-rule:nonzero;stroke:none"
       id="rect3698"
       width="226.2128"
       height="226.2128"
       x="18.097521"
       y="303.58759"
       inkscape:export-filename="done.png"
       inkscape:export-xdpi="6.3656878"
       inkscape:export-ydpi="6.3656878" />
    <g
       id="g3702"
       style="fill:#00ff00"
       transform="translate(-36.446545,0.62385904)">
      <rect
         transform="matrix(0.5,0.8660254,-0.8660254,0.5,0,0)"
         ry="19.588718"
         y="106.68322"
         x="370.1524"
         height="41.171837"
         width="159.69681"
         id="rect2827-1-8"
         style="fill:#00ff00;fill-opacity:1;fill-rule:nonzero;stroke:none" />
      <rect
         transform="matrix(0.5,-0.8660254,0.8660254,0.5,0,0)"
         style="fill:#00ff00;fill-opacity:1;fill-rule:nonzero;stroke:none"
         id="rect3700"
         width="245.78339"
         height="41.171837"
         x="-383.7204"
         y="359.78577"
         ry="19.588718" />
    </g>
    <rect
       y="310.81815"
       x="513.9212"
       height="226.2128"
       width="226.2128"
       id="rect3706"
       style="opacity:1;fill:#ececec;fill-opacity:1;fill-rule:nonzero;stroke:none"
       inkscape:export-filename="unknown.png"
       inkscape:export-xdpi="6.3656874"
       inkscape:export-ydpi="6.3656874" />
    <rect
       style="fill:#ffffff;fill-opacity:1;fill-rule:nonzero;stroke:none;opacity:1"
       id="rect3708"
       width="226.2128"
       height="226.2128"
       x="7.9138775"
       y="551.86621"
       inkscape:export-filename="process_0.png"
       inkscape:export-xdpi="6.3656874"
       inkscape:export-ydpi="6.3656874" />
    <path
       sodipodi:type="arc"
       style="fill:#adb000;fill-opacity:1;fill-rule:nonzero;stroke:none"
       id="path3710"
       sodipodi:cx="354.95114"
       sodipodi:cy="653.74396"
       sodipodi:rx="38.052757"
       sodipodi:ry="38.052757"
       d="m 393.0039,653.74396 a 38.052757,38.052757 0 1 1 -76.10552,0 38.052757,38.052757 0 1 1 76.10552,0 z"
       transform="matrix(0.85245901,0,0,0.85245901,-258.29035,107.68271)" />
    <path
       transform="matrix(0.85245901,0,0,0.85245901,-181.56103,107.68271)"
       d="m 393.0039,653.74396 a 38.052757,38.052757 0 1 1 -76.10552,0 38.052757,38.052757 0 1 1 76.10552,0 z"
       sodipodi:ry="38.052757"
       sodipodi:rx="38.052757"
       sodipodi:cy="653.74396"
       sodipodi:cx="354.95114"
       id="path3712"
       style="fill:#dada00;fill-opacity:1;fill-rule:nonzero;stroke:none"
       sodipodi:type="arc" />
    <path
       sodipodi:type="arc"
       style="fill:#ffff00;fill-opacity:1;fill-rule:nonzero;stroke:none"
       id="path3714"
       sodipodi:cx="354.95114"
       sodipodi:cy="653.74396"
       sodipodi:rx="38.052757"
       sodipodi:ry="38.052757"
       d="m 393.0039,653.74396 a 38.052757,38.052757 0 1 1 -76.10552,0 38.052757,38.052757 0 1 1 76.10552,0 z"
       transform="matrix(0.85245901,0,0,0.85245901,-104.83169,107.68271)" />
    <rect
       y="550.61859"
       x="253.69728"
       height="226.2128"
       width="226.2128"
       id="rect3724"
       style="fill:#ffffff;fill-opacity:1;fill-rule:nonzero;stroke:none;opacity:1"
       inkscape:export-filename="process_1.png"
       inkscape:export-xdpi="6.3656869"
       inkscape:export-ydpi="6.3656869" />
    <path
       transform="matrix(0.85245901,0,0,0.85245901,-12.506964,106.43508)"
       d="m 393.0039,653.74396 a 38.052757,38.052757 0 1 1 -76.10552,0 38.052757,38.052757 0 1 1 76.10552,0 z"
       sodipodi:ry="38.052757"
       sodipodi:rx="38.052757"
       sodipodi:cy="653.74396"
       sodipodi:cx="354.95114"
       id="path3726"
       style="fill:#dada00;fill-opacity:1;fill-rule:nonzero;stroke:none"
       sodipodi:type="arc" />
    <path
       sodipodi:type="arc"
       style="fill:#dada00;fill-opacity:1;fill-rule:nonzero;stroke:none"
       id="path3728"
       sodipodi:cx="354.95114"
       sodipodi:cy="653.74396"
       sodipodi:rx="38.052757"
       sodipodi:ry="38.052757"
       d="m 393.0039,653.74396 a 38.052757,38.052757 0 1 1 -76.10552,0 38.052757,38.052757 0 1 1 76.10552,0 z"
       transform="matrix(0.85245901,0,0,0.85245901,64.222359,106.43508)" />
    <path
       transform="matrix(0.85245901,0,0,0.85245901,140.9517,106.43508)"
       d="m 393.0039,653.74396 a 38.052757,38.052757 0 1 1 -76.10552,0 38.052757,38.052757 0 1 1 76.10552,0 z"
       sodipodi:ry="38.052757"
       sodipodi:rx="38.052757"
       sodipodi:cy="653.74396"
       sodipodi:cx="354.95114"
       id="path3730"
       style="fill:#ffff00;fill-opacity:1;fill-rule:nonzero;stroke:none"
       sodipodi:type="arc" />
    <rect
       style="fill:#ffffff;fill-opacity:1;fill-rule:nonzero;stroke:none;opacity:0.99585062"
       id="rect3732"
       width="226.2128"
       height="226.2128"
       x="54.076256"
       y="807.63068"
       inkscape:export-filename="process_3.png"
       inkscape:export-xdpi="6.3656874"
       inkscape:export-ydpi="6.3656874" />
    <path
       sodipodi:type="arc"
       style="fill:#ffff00;fill-opacity:1;fill-rule:nonzero;stroke:none"
       id="path3734"
       sodipodi:cx="354.95114"
       sodipodi:cy="653.74396"
       sodipodi:rx="38.052757"
       sodipodi:ry="38.052757"
       d="m 393.0039,653.74396 a 38.052757,38.052757 0 1 1 -76.10552,0 38.052757,38.052757 0 1 1 76.10552,0 z"
       transform="matrix(0.85245901,0,0,0.85245901,-212.12799,363.44715)" />
    <path
       transform="matrix(0.85245901,0,0,0.85245901,-135.39867,363.44715)"
       d="m 393.0039,653.74396 a 38.052757,38.052757 0 1 1 -76.10552,0 38.052757,38.052757 0 1 1 76.10552,0 z"
       sodipodi:ry="38.052757"
       sodipodi:rx="38.052757"
       sodipodi:cy="653.74396"
       sodipodi:cx="354.95114"
       id="path3736"
       style="fill:#dada00;fill-opacity:1;fill-rule:nonzero;stroke:none"
       sodipodi:type="arc" />
    <path
       sodipodi:type="arc"
       style="fill:#dada00;fill-opacity:1;fill-rule:nonzero;stroke:none"
       id="path3738"
       sodipodi:cx="354.95114"
       sodipodi:cy="653.74396"
       sodipodi:rx="38.052757"
       sodipodi:ry="38.052757"
       d="m 393.0039,653.74396 a 38.052757,38.052757 0 1 1 -76.10552,0 38.052757,38.052757 0 1 1 76.10552,0 z"
       transform="matrix(0.85245901,0,0,0.85245901,-58.669328,363.44715)" />
    <rect
       y="806.38306"
       x="336.04095"
       height="226.2128"
       width="226.2128"
       id="rect3740"
       style="fill:#ffffff;fill-opacity:1;fill-rule:nonzero;stroke:none;opacity:1"
       inkscape:export-filename="process_4.png"
       inkscape:export-xdpi="6.3656869"
       inkscape:export-ydpi="6.3656869" />
    <path
       transform="matrix(0.85245901,0,0,0.85245901,69.836711,362.19952)"
       d="m 393.0039,653.74396 a 38.052757,38.052757 0 1 1 -76.10552,0 38.052757,38.052757 0 1 1 76.10552,0 z"
       sodipodi:ry="38.052757"
       sodipodi:rx="38.052757"
       sodipodi:cy="653.74396"
       sodipodi:cx="354.95114"
       id="path3742"
       style="fill:#ffff00;fill-opacity:1;fill-rule:nonzero;stroke:none"
       sodipodi:type="arc" />
    <path
       sodipodi:type="arc"
       style="fill:#dada00;fill-opacity:1;fill-rule:nonzero;stroke:none"
       id="path3744"
       sodipodi:cx="354.95114"
       sodipodi:cy="653.74396"
       sodipodi:rx="38.052757"
       sodipodi:ry="38.052757"
       d="m 393.0039,653.74396 a 38.052757,38.052757 0 1 1 -76.10552,0 38.052757,38.052757 0 1 1 76.10552,0 z"
       transform="matrix(0.85245901,0,0,0.85245901,146.56603,362.19952)" />
    <path
       transform="matrix(0.85245901,0,0,0.85245901,223.29537,362.19952)"
       d="m 393.0039,653.74396 a 38.052757,38.052757 0 1 1 -76.10552,0 38.052757,38.052757 0 1 1 76.10552,0 z"
       sodipodi:ry="38.052757"
       sodipodi:rx="38.052757"
       sodipodi:cy="653.74396"
       sodipodi:cx="354.95114"
       id="path3746"
       style="fill:#adb000;fill-opacity:1;fill-rule:nonzero;stroke:none"
       sodipodi:type="arc" />
    <rect
       style="fill:#ffffff;fill-opacity:1;fill-rule:nonzero;stroke:none;opacity:1"
       id="rect3748"
       width="226.2128"
       height="226.2128"
       x="488.25198"
       y="550.61865"
       inkscape:export-filename="process_2.png"
       inkscape:export-xdpi="6.3656874"
       inkscape:export-ydpi="6.3656874" />
    <path
       sodipodi:type="arc"
       style="fill:#dada00;fill-opacity:1;fill-rule:nonzero;stroke:none"
       id="path3750"
       sodipodi:cx="354.95114"
       sodipodi:cy="653.74396"
       sodipodi:rx="38.052757"
       sodipodi:ry="38.052757"
       d="m 393.0039,653.74396 a 38.052757,38.052757 0 1 1 -76.10552,0 38.052757,38.052757 0 1 1 76.10552,0 z"
       transform="matrix(0.85245901,0,0,0.85245901,222.04775,106.43508)" />
    <path
       transform="matrix(0.85245901,0,0,0.85245901,298.77706,106.43508)"
       d="m 393.0039,653.74396 a 38.052757,38.052757 0 1 1 -76.10552,0 38.052757,38.052757 0 1 1 76.10552,0 z"
       sodipodi:ry="38.052757"
       sodipodi:rx="38.052757"
       sodipodi:cy="653.74396"
       sodipodi:cx="354.95114"
       id="path3752"
       style="fill:#adb000;fill-opacity:1;fill-rule:nonzero;stroke:none"
       sodipodi:type="arc" />
    <path
       sodipodi:type="arc"
       style="fill:#dada00;fill-opacity:1;fill-rule:nonzero;stroke:none"
       id="path3754"
       sodipodi:cx="354.95114"
       sodipodi:cy="653.74396"
       sodipodi:rx="38.052757"
       sodipodi:ry="38.052757"
       d="m 393.0039,653.74396 a 38.052757,38.052757 0 1 1 -76.10552,0 38.052757,38.052757 0 1 1 76.10552,0 z"
       transform="matrix(0.85245901,0,0,0.85245901,375.5064,106.43508)" />
    <circle
       style="opacity:1;fill:#eaea00;fill-opacity:1;stroke:none;stroke-width:5;stroke-miterlimit:4;stroke-dasharray:none;stroke-opacity:1"
       id="path4179"
       cx="374.44049"
       cy="417.62094"
       r="112.07392"
       inkscape:export-xdpi="6.4243298"
       inkscape:export-ydpi="6.4243298" />
    <g
       id="g4191"
       transform="translate(-3.0899963,1.0771713)"
       style="fill:#000000;fill-opacity:1">
      <rect
         style="fill:#000000;fill-opacity:1;fill-rule:nonzero;stroke:none"
         id="rect4183"
         width="139.50011"
         height="41.171837"
         x="-457.53622"
         y="356.94458"
         ry="19.588718"
         transform="matrix(0,-1,1,0,0,0)" />
      <circle
         r="22.472382"
         cy="492.57904"
         cx="377.53049"
         id="path4189"
         style="opacity:1;fill:#000000;fill-opacity:1;stroke:none;stroke-width:5;stroke-miterlimit:4;stroke-dasharray:none;stroke-opacity:1" />
    </g>
  </g>
</svg>
